# xmcd CD database file
#
# Track frame offsets:
#	150
#	16293
#	32366
#	47427
#	65012
#	79865
#	91924
#	108706
#	137935
#	157270
#	172533
#	192383
#	202012
#	218150
#	230444
#	243357
#	259598
#	276361
#
# Disc length: 3873 seconds
#
# Revision: 3
# Processed by: cddbd v1.5.2PL0 Copyright (c) Steve Scherf et al.
# Submitted via: CDex 1.70beta3
#
DISCID=fa0f1f12
DTITLE=Duke Jordan - In Copenhagen
DYEAR=1980
DGENRE=Jazz
TTITLE0=No Problem
TTITLE1=They Can’t Take That Away From Me
TTITLE2=Lush Life
TTITLE3=Everything Happens To Me
TTITLE4=All The Things You Are
TTITLE5=The Way You Look Tonight
TTITLE6=Jor-Du
TTITLE7=Tea For Two - Star Dust
TTITLE8=Yesterdays
TTITLE9=Flight To Jordan
TTITLE10=Misty
TTITLE11=It’s Only A Paper Moon
TTITLE12=Don’t Blame Me
TTITLE13=Parisian Hop
TTITLE14=Two Loves
TTITLE15=Night Walk
TTITLE16=How Deep Is The Ocean
TTITLE17=Three Little Words
EXTD=YEAR: 1980
EXTT0=
EXTT1=
EXTT2=
EXTT3=
EXTT4=
EXTT5=
EXTT6=
EXTT7=
EXTT8=
EXTT9=
EXTT10=
EXTT11=
EXTT12=
EXTT13=
EXTT14=
EXTT15=
EXTT16=
EXTT17=
PLAYORDER=
